/* XPM */
static char *Logo_xpm[] = {
/* width height num_colors chars_per_pixel */
"    64    64      256            2",
/* colors */
"`` c #605658",
"`. c #613c44",
"`# c #76495b",
"`a c #51484c",
"`b c #4b4749",
"`c c #c1bfc0",
"`d c #9c5f87",
"`e c #6c3d60",
"`f c #5a4f57",
"`g c #804874",
"`h c #8c4c81",
"`i c #7f4478",
"`j c #975590",
"`k c #9f5899",
"`l c #502d4d",
"`m c #311a30",
"`n c #764075",
"`o c #6a4769",
"`p c #844384",
"`q c #814381",
"`r c #a154a1",
"`s c #9d529d",
"`t c #ad5bad",
"`u c #8e4b8e",
"`v c #221222",
"`w c #a95aa9",
"`x c #a558a5",
"`y c #ad5dad",
"`z c #ab5cab",
"`A c #824682",
"`B c #794179",
"`C c #6a396a",
"`D c #633563",
"`E c #432443",
"`F c #b260b2",
"`G c #b05fb0",
"`H c #7e447e",
"`I c #663766",
"`J c #844884",
"`K c #7f457f",
"`L c #7d447d",
"`M c #7b437b",
"`N c #6e3c6e",
"`O c #804680",
"`P c #563056",
"`Q c #5c3f5c",
"`R c #645c64",
"`S c #803f81",
"`T c #69366a",
"`U c #9a519b",
"`V c #934d94",
"`W c #965097",
"`X c #874888",
"`Y c #733e74",
"`Z c #974d9b",
"`0 c #a555a9",
"`1 c #a958ac",
"`2 c #ae5cb1",
"`3 c #5c325e",
"`4 c #834288",
"`5 c #a856ae",
"`6 c #89468e",
"`7 c #914898",
"`8 c #9d4fa4",
".` c #85448c",
".. c #783e7e",
".# c #693470",
".a c #4c2950",
".b c #48374d",
".c c #403f41",
".d c #50386f",
".e c #302f32",
".f c #483f83",
".g c #534b98",
".h c #4d458c",
".i c #252240",
".j c #1e1c31",
".k c #4a476b",
".l c #5853a4",
".m c #5a58aa",
".n c #5957a7",
".o c #2f2e55",
".p c #5a5bac",
".q c #343464",
".r c #5b5cad",
".s c #5a5aab",
".t c #5455a0",
".u c #4f5096",
".v c #4e4e94",
".w c #4b4c8f",
".x c #5e5fb1",
".y c #5c5dae",
".z c #5959a8",
".A c #595aa8",
".B c #5657a3",
".C c #52529b",
".D c #5c5dad",
".E c #5b5cab",
".F c #5b5bab",
".G c #5859a5",
".H c #444480",
".I c #5a5ba8",
".J c #565699",
".K c #565669",
".L c #444445",
".M c #47498a",
".N c #3a3c6f",
".O c #5e61b3",
".P c #464785",
".Q c #404179",
".R c #4b4c84",
".S c #515285",
".T c #595a8d",
".U c #60616f",
".V c #696b78",
".W c #494b51",
".X c #58595a",
".Y c #818283",
".Z c #2e4f68",
".0 c #545759",
".1 c #383a3b",
".2 c #747676",
".3 c #7a7b7b",
".4 c #676868",
".5 c #5f6060",
".6 c #1e5d5b",
".7 c #166e54",
".8 c #365349",
"#` c #4a5651",
"#. c #068d51",
"## c #09834d",
"#a c #43514b",
"#b c #00a759",
"#c c #008346",
"#d c #018849",
"#e c #3f8565",
"#f c #1e362b",
"#g c #00b05a",
"#h c #00ab59",
"#i c #00a956",
"#j c #00a556",
"#k c #00a354",
"#l c #009f53",
"#m c #009a51",
"#n c #00954e",
"#o c #008647",
"#p c #007f43",
"#q c #018d4a",
"#r c #037640",
"#s c #0d8c4f",
"#t c #108a50",
"#u c #00a653",
"#v c #16894f",
"#w c #26523c",
"#x c #009f4d",
"#y c #0f6f3c",
"#z c #16623a",
"#A c #39724c",
"#B c #336d38",
"#C c #606f60",
"#D c #4e4f4e",
"#E c #717271",
"#F c #6c6d6c",
"#G c #a5a6a5",
"#H c #898a89",
"#I c #4f6b36",
"#J c #5c5d5b",
"#K c #454741",
"#L c #6b7b3e",
"#M c #4b4b4a",
"#N c #6c6835",
"#O c #6e6c63",
"#P c #fee385",
"#Q c #c7a946",
"#R c #847339",
"#S c #7b7561",
"#T c #c9a84b",
"#U c #d1af50",
"#V c #bfa350",
"#W c #545350",
"#X c #9c7926",
"#Y c #967934",
"#Z c #8f7434",
"#0 c #c5a14a",
"#1 c #c7a34c",
"#2 c #c09e4a",
"#3 c #9f823d",
"#4 c #af9045",
"#5 c #caa650",
"#6 c #c7a44f",
"#7 c #c4a24e",
"#8 c #bb9a4a",
"a` c #b39347",
"a. c #cda952",
"a# c #c8a550",
"aa c #c6a34f",
"ab c #c3a24e",
"ac c #c3a14e",
"ad c #b69649",
"ae c #93793b",
"af c #be9d4d",
"ag c #e0bb5e",
"ah c #a48948",
"ai c #998147",
"aj c #f9d477",
"ak c #a8925c",
"al c #87764d",
"am c #726850",
"an c #877e67",
"ao c #382a09",
"ap c #5b4410",
"aq c #725515",
"ar c #89681b",
"as c #926f20",
"at c #957223",
"au c #977526",
"av c #7e6020",
"aw c #9a7728",
"ax c #9d7a2b",
"ay c #a58130",
"az c #a17e2f",
"aA c #9c7b31",
"aB c #8f712f",
"aC c #947632",
"aD c #8c7030",
"aE c #9b7d39",
"aF c #cea651",
"aG c #a58741",
"aH c #d9b056",
"aI c #ab8c44",
"aJ c #6b582b",
"aK c #c4a14f",
"aL c #816a36",
"aM c #e6c16c",
"aN c #c8a85f",
"aO c #bc9d5a",
"aP c #504837",
"aQ c #4c3914",
"aR c #c69c4b",
"aS c #bf9748",
"aT c #ba9446",
"aU c #cca14e",
"aV c #c9a96d",
"aW c #776d5d",
"aX c #b88f6b",
"aY c #a68063",
"aZ c #635143",
"a0 c #926a54",
"a1 c #805a52",
"a2 c #a0746c",
"a3 c #4b4544",
"a4 c #f2f2f2",
"a5 c #646464",
"a6 c #555555",
"a7 c #484848",
"a8 c None",
/* pixels */
"a8a8a8a8a8a8a8a8a8a8a8a8a8a8a8a8a8a8a8a8a8a8a8a8a8a8a8a8a8a8a8a8a8a8a8a8a8a8a8a8a8a8a8a8a8a8a8a8a8a8a8a8a8a8a8a8a8a8a8a8a8a8a8a8",
"a8a8a8a8a8a8a8a8a8a8a8a8a8a8a8a8a8a8a8a8a8a8a8a8a8a8a8a8a8a8a8a8a8a8a8a8a8a8a8a8a8a8a8a8a8a8a8a8a8a8a8a8a8a8a8a8a8a8a8a8a8a8a8a8",
"a8a8a8a8a8a8a8a8a8a8a8a8a8a8a8a8a8a8a8a8a8a8a8a8a8a8a8a8a8a8a8a8a8a8a8a8a8a8a8a8a8a8a8a8a8a8a8a8a8a8a8a8a8a8a8a8a8a8a8a8a8a8a8a8",
"a8a8a8a8a8a8aQavavaqaqa8a8a8a8a8a8a8a8a8a8a8a8a8a8a8a8a8a8a8a8a8a8a8a8a8a8a8a8a8a8a8a8a8a8a8a8a8a8a8a8a8a8a8a8a8a8a8a8a8a8a8a8a8",
"a8a8a8a8aJaAayayaxauasaraqapa8a8a8a8a8a8a8a8a8a8a8a8a8a8a8a8a8a8a8a8a8a8a8a8a8a8a8a8a8a8a8a8a8a8a8a8a8a8a8a8a8a8a8a8a8a8a8a8a8a8",
"a8a8a8a8afa`#3aCazayaxawatasarapa8a8a8a8a8a8a8a8a8a8a8a8a8a8a8a8a8a8a8a8a8a8a8a8a8a8a8a8a8a8a8a8a8a8a8a8a8a8a8a8a8a8a8a8a8a8a8a8",
"a8a8a8a8af#5#7ad#3aBaAayazawauasaraqaQa8a8a8a8a8a8a8a8a8a8a8a8a8a8a8a8a8a8a8a8a8a8a8a8a8a8a8a8a8a8a8a8a8a8a8a8a8a8a8a8a8a8a8a8a8",
"a8a8a8a8ad#6acaa#6adaI#3aCazayaxauatasavapa8a8a8a8a8a8a8a8a8a8a8a8a8a8a8a8a8a8a8a8a8a8a8a8a8a8a8a8a8a8a8a8a8a8a8a8a8a8a8a8a8a8a8",
"a8a8a8a8#4a#acacac#7a##7#4ae#ZaAayay#Xatasaraqapa8a8a8a8a8a8a8a8a8a8a8a8a8a8a8a8a8a8a8a8a8a8a8a8a8a8a8a8a8a8a8a8a8a8a8a8a8a8a8a8",
"a8a8a8a8#4a#acacaKacacac#6#6ad#3aDaBazayaxauasaraqapa8a8a8a8a8a8a8a8a8a8a8a8a8a8a8a8a8a8a8a8a8a8a8a8a8a8a8a8a8a8a8a8a8a8a8a8a8a8",
"a8a8a8a8ad#5#7acacacacacacaKaaa#af#4#YaCaAayazawatasarapa8a8a8a8a8a8a8a8a8a8a8a8a8a8a8a8a8a8a8a8a8a8a8a8a8a8a8a8a8a8a8a8a8a8a8a8",
"a8a8a8a8aLab#8aa#7acacacacacacac#7#6#7#4aEaEaAayayaxauataraqaQa8a8a8a8a8a8a8a8a8a8a8a8a8a8a8a8a8a8a8a8a8a8a8a8a8a8a8a8a8a8a8a8a8",
"a8a8a8a8a8a8aPaG#1#6#7acacacacacacacaKaaa#afaIaEaCaAayazawatasarapa8a8a8a8a8a8a8a8a8a8a8a8a8a8a8a8a8a8a8a8a8a8a8a8a8a8a8a8a8a8a8",
"a8a8a8a8a8a8.L#OalaI#2#5aaacacacacacacacaK#7#6aaa`aE#YaAayayawatasaraqaQa8a8a8a8a8a8a8a8a8a8a8a8a8a8a8a8a8a8a8a8a8a8a8a8a8a8a8a8",
"a8a8a8a8a8a8a8a5.2#FamaiaSaFa#aaacacacacacacac#7aa#6#8aG#YaBazayaxauataraqapa8a8a8a8a8a8a8a8a8a8a8a8a8a8a8a8a8a8a8a8a8a8a8a8a8a8",
"a8a8a8a8a8a8a8a8.e.5.2.5#B#LaIaRaF#6#7acacacacacac#7#7a#acaI#ZaCayayazawatasarapa8a8a8a8a8a8a8a8a8a8a8a8a8a8a8a8a8a8a8a8a8a8a8a8",
"a8a8a8a8a8a8a8a8.3#Ga5#F#z#r#p#B#L#4aU#5#7acacacacacacacaK#6#7adaI#YaBazayaxauataraqapa8a8a8a8a8a8a8a8a8a8a8a8a8a8a8a8a8a8a8a8a8",
"a8a8a8a8a8a8a8.e`ca4.4.1.X#G#e#p#c#y#I#3aRaFaaacacacacacacacaKaa#6afaI#ZaDazayazawatasaraqaoa8a8a8a8a8a8a8a8a8a8a8a8a8a8a8a8a8a8",
"a8a8a8.o.ia8a8#W.5.2.c`v#F#G``.e#w#r#o#p#B#RaSaFa##7acacacacacacac#7#6#7a`#3#YaAayayaxatasaraqaQa8a8a8a8a8a8a8a8a8a8a8a8a8a8a8a8",
"a8.q.G.B.t.P.c#E#J.1.1#Ja7.e.e#J`ba3.8.7#o#p#z#N#4aUaFaaacacacacacacacaKaa#6afaGaLaCayayax#XasaraqaQa8a8a8a8a8a8a8a8a8a8a8a8a8a8",
"a8.O.y.F.z.Q.q.K.3.Y#H.3a5#W.L#D.1#M``#`#r#p#c#p#y#I#RaTaFa##7acacacacacac#7acaa#2a`#3#YaxaLa1`#`N`g`e`l`ma8a8a8a8a8a8a8a8a8a8a8",
".P.O.D.x.H.N.t.n.v.S.V.3a7#W#F#Fa7.L.5a6#p#q#c#r#r#p#c#z#NaGaUaF#7#7acac#7#7aeaLaI#2#5#2a1.#..`V`s`U`V`u`B`C`Ea8a8a8a8a8a8a8a8a8",
".w.E.r.t.N.v.x.p.s.z.C.R.N.N.ba6.c.c.5a6#r#m#n#n#o#r#r#p#c#y#IaeaRa.#7ac#7#8ahaOal#Sak#Va0`7`p`T`q`B`Y`P`3`I`C`D.aa8a8a8a8a8a8a8",
".Q.A.A.P.N.G.y.y.D.r.s.p.s.u.q.o.j.ca5#W#r#k#m#n#n#n#q#p#r#c#c#r#B#R#2#Taa#6aGaian.Y.Y.YaW`o`o`R`o`E.a`Y`B`n`B`B`M`C.aa8a8a8a8a8",
".i.C.t.N.H.G.A.F.r.y.D.y.J.Q.C.B.u.H.k.W#o#u#k#l#m#m#n#n#n#c#r#c#r.WaWaia`#1#5#4am.V.Y.Y#H.4.3.Y#J.1.c`D`H`H`H`H`K`K`M`Ia8a8a8a8",
"a8.q.v.q.N.t.t.B.A.F.r.I.T.B.y.s.A.G.C.w.Z.7#d#u#u#l#m#m#n#n#n#q#r.4.3.2#Oal#3#1ad#R#Ja5.2#F#H#F#Da6#M`l`H`L`L`L`L`L`K`O`Da8a8a8",
"a8a8a8.o.o.w.C.C.t.B.z.J.T.p.y.D.r.F.A.n.l.g.N.6#d#x#u#l#m#m#m#n#q#A.X#W.4#F`baZae#2#0aiaZ.4.Y#M.L#Da7`P`L`L`L`H`L`H`L`K`H`Ea8a8",
"a8a8a8a8a8.i.H.w.v.C.B.H.Q.r.F.r.y.y.D.p.A.n.z.g.H.Z#r#m#u#k#l#m#m#ra5`c.4.1.1.La7aPaLad#Za6.2a7#D.4.c`P`K`L`L`L`H`L`L`L`A`Na8a8",
"a8a8a8a8a8a8a8.o.Q.P.u.N.Q.B.B.G.I.D.D.y.D.r.s.A.n.t.h.Z.7#d#x#u#i#z#Ha4.Y#f#r.8a5.5`P`h`#`N`f.c#D#M.b`Y`O`H`H`L`H`L`L`L`H`J`Ea8",
"a8a8a8a8a8a8a8#K#H.U.k.q.q.C.C.t.B.G.A.F.D.y.y.D.F.A.z.n.g.P.Z#y#d#w`a.5.1#f#A#a.L#C```7`8`r`V`n`Q.a`n`K`L`L`L`H`L`L`L`L`L`O`Ia8",
"a8a8a8a8a8a8a8a8#Ea5a5.U.1.o.Q.w.u.C.t.B.G.s.r.D.y.D.r.m.A.m.f.q.N.4.3#Ma6#E`Ra7.e`laZaQ`e`X`r`0`s`C`L`H`H`L`L`L`L`L`H`L`L`H`M`v",
"a8a8a8a8a8a8a8a8a6`c#H.L#D#M.K.k.Q.h.v.C.t.B.G.A.E.D.D.D.x.H.P.p.n.S.0.Y#G#HamaJaL`..a`C`Q.c`Q`i`Z`Y`N`n`n`M`K`L`H`L`H`L`L`H`O`m",
"a8a8a8a8a8a8a8aQ.2a4#G.ea6#E.3a6.c.6.N.f.v.u.C.t.G.A.E.x.C.N.y.r.A.H.N.N.U.3am`#aJaQ`D`X`q`Q.caLa0`3`D`C`D`3`N`H`L`L`L`L`L`H`J`E",
"a8a8a8a8a8a8ae#N.c.5#M.e#J#F``.0#s#g#m.7.Z.Q.h.u.C.t.B.F.N.w.x.x.t.Q.t.f.q.NaP`e`S`P`n`L`O`M.baG#Ta1.``X`A`B`D`C`K`L`L`L`L`H`J`P",
"a8a8a8a8a8aE#ZaZ.Ua7#M.5a6`f#`#t#h#b#h#g#i#..6.N.f.v.C.C.q.C.s.E.G.P.P.C.v.N.q.1.o`m.i.a`H`B.bahagaY`6`u`u`X`J`C`n`H`L`L`L`H`A`3",
"a8a8a8a8a8a##4aLam#O.2.Y.X#w#q#i#j#j#b#b#h#g#g#m.7.Z.Q.h.o.u.t.B.z.F.u.H.t.w.H.h.Q.Q.q.j`C.b#KaNaMah`u`W`V`u`u`A`I`O`L`L`L`L`A`3",
"a8a8a8a8a8#8#5#1#0#4alaW.8#r#d#q#m#j#j#j#j#b#b#h#g#l##.Z.o.f.u.C.t.G.t.N.v.t.w.Q.H.h.N.N.d.aaPaMajaY`7`s`U`W`W`u`N`M`H`L`H`H`A`D",
"a8a8a8a8a8#8aaac#7#6#1#8#R#A#o#d#p#p#m#l#j#j#j#b#b#b#g#h#q.6.Q.h.v.C.v.N.o.o.q.C.B.P.o.H.H`Pa1ajajaX`7`r`s`s`U`s`C`Y`H`L`L`L`A`3",
"a8a8a8a8a8#8aaacacacac#7a.aRaI#L#y#p#q#o#o#m#j#j#j#j#b#h#g#i#d.6.N.H.P.q.j.i.j.N.Q.N.N.M.P.da2#Paja2`8`x`r`r`r`r`Y`Y`H`L`H`L`J`l",
"a8a8a8a8a8ada#acacacacacac#7#5#1#3#N#z#r#c#p#p#n#k#j#j#j#b#b#g#g#m.8.k.o.i.i.i.Q.q.N.P.w.H`PaV#Paj`d`1`x`x`x`r`w`B`Y`K`L`L`L`J`E",
"a8a8a8a8a8#8a.#7acac#7acacacac#7a#aFaT#R#B#r#o#p#p#q#l#j#j#j#j#b#g#v#C.U.1.j.i.o.q.H.w.M.da1#P#PaV`u`t`w`w`x`x`w`Y`Y`K`L`L`L`A`m",
"a8a8a8a8a8aJaIaca.aaaKacac#7acacacaKaaaFaR#Y#I#y#p#p#p#o#m#k#j#j#j#g#d#a#E.2a7.j.j.q.Q.d`TaV#P#Pa2`5`y`z`w`w`w`x`n`M`H`L`L`H`La8",
"a8a8a8a8a8a8a8a8#Z#8a.#5acacaKacaKacacacaKaFaU#4#R#B#r#o#q#o#q#m#i#n.8`c#G#E#F.c`l`D`I`na2#P#PaM`k`2`y`y`z`z`t`r`N`K`L`L`L`A`Ia8",
"a8a8a8a8a8a8a8a8a8a8aJaG#5a#aa#7acacacacaKacaKaaaFaR#3#I#y#c#o#p#q#z`a`c#G.1.L#EaP`l`3aZaj#P#Pa2`5`y`y`y`y`y`F`u`N`K`L`L`L`J`Ea8",
"a8a8a8a8a8a8a8a8a8a8a8a8a8aGaca.a#acacac#7acacacac#7#5aU#4#N#B#c#o#z`aa7.c.1.2#H#Oa3.caN#P#PaX`Z`2`y`y`y`y`y`G`B`B`L`L`L`L`O`va8",
"a8a8a8a8a8a8a8a8a8a8a8a8a8a8a8aLada.#5#7acac#7aKaK#7ac#7a#aFaS#R#B#wa5.0#Ma6.2#F.Xa7akajajaV`j`2`z`z`y`y`y`G`W`N`K`L`L`L`A`Ca8a8",
"a8a8a8a8a8a8a8a8a8a8a8a8a8a8a8a8a8aJaeaca.aaaKacacac#7acacacaaaFaRaE#R#S#F#E.0.W#WaGaMagaX`j`0`x`w`w`z`z`y`w`Y`M`L`L`L`L`J`Ea8a8",
"a8a8a8a8a8a8a8a8a8a8a8a8a8a8a8a8a8a8a8a8aLaf#5#5#7ac#7acacacacacaKa#a##2ahal#WaPaTaHa.a1`4`r`x`x`x`x`w`w`t`K`n`K`L`L`L`O`na8a8a8",
"a8a8a8a8a8a8a8a8a8a8a8a8a8a8a8a8a8a8a8a8a8a8aJaG#5a.aaacacacacacacacac#7#6#1adaEaAa`aT`g`S`q`X`s`x`r`x`x`A`n`L`L`H`L`L`J.aa8a8a8",
"a8a8a8a8a8a8a8a8a8a8a8a8a8a8a8a8a8a8a8a8a8a8a8a8a8aeafa.#6#7aKaKacacacac#7acaaa#adaG#Y`#`8`U`X`B`X`U`U`B`Y`H`L`L`L`H`A`na8a8a8a8",
"a8a8a8a8a8a8a8a8a8a8a8a8a8a8a8a8a8a8a8a8a8a8a8a8a8a8a8aLad#5#5#7acacacac#7acac#7aaa##2aha0`i`s`U`u`A`D`Y`H`L`L`L`L`L`J`Ea8a8a8a8",
"a8a8a8a8a8a8a8a8a8a8a8a8a8a8a8a8a8a8a8a8a8a8a8a8a8a8a8a8a8a8aeafa.#6acacacacacacacac#7a##Qa1`7`s`s`V`I`O`L`L`L`L`L`A`Ca8a8a8a8a8",
"a8a8a8a8a8a8a8a8a8a8a8a8a8a8a8a8a8a8a8a8a8a8a8a8a8a8a8a8a8a8a8a8#Ra`#5a##7acacacacacacac#Ta2`7`s`s`V`C`K`L`L`L`L`K`K`va8a8a8a8a8",
"a8a8a8a8a8a8a8a8a8a8a8a8a8a8a8a8a8a8a8a8a8a8a8a8a8a8a8a8a8a8a8a8a8a8#NaI#6a.aaacacacac#7#Ta0`7`s`s`V`C`K`H`L`L`K`J`Ea8a8a8a8a8a8",
"a8a8a8a8a8a8a8a8a8a8a8a8a8a8a8a8a8a8a8a8a8a8a8a8a8a8a8a8a8a8a8a8a8a8a8a8a8#Zafa.a##7acac#Ta0`7`s`s`V`N`K`H`L`L`J`Pa8a8a8a8a8a8a8",
"a8a8a8a8a8a8a8a8a8a8a8a8a8a8a8a8a8a8a8a8a8a8a8a8a8a8a8a8a8a8a8a8a8a8a8a8a8a8a8aJaI#6a.aa#Ta0`7`s`s`V`C`K`L`H`J`3a8a8a8a8a8a8a8a8",
"a8a8a8a8a8a8a8a8a8a8a8a8a8a8a8a8a8a8a8a8a8a8a8a8a8a8a8a8a8a8a8a8a8a8a8a8a8a8a8a8a8a8aLaf#Ua0`V`U`s`V`N`H`K`A`la8a8a8a8a8a8a8a8a8",
"a8a8a8a8a8a8a8a8a8a8a8a8a8a8a8a8a8a8a8a8a8a8a8a8a8a8a8a8a8a8a8a8a8a8a8a8a8a8a8a8a8a8a8a8#Za0`Z`r`s`V`C`A`K`Ea8a8a8a8a8a8a8a8a8a8",
"a8a8a8a8a8a8a8a8a8a8a8a8a8a8a8a8a8a8a8a8a8a8a8a8a8a8a8a8a8a8a8a8a8a8a8a8a8a8a8a8a8a8a8a8a8a8a8`q`r`U`N`C`ma8a8a8a8a8a8a8a8a8a8a8",
"a8a8a8a8a8a8a8a8a8a8a8a8a8a8a8a8a8a8a8a8a8a8a8a8a8a8a8a8a8a8a8a8a8a8a8a8a8a8a8a8a8a8a8a8a8a8a8a8a8`C`Ea8a8a8a8a8a8a8a8a8a8a8a8a8",
"a8a8a8a8a8a8a8a8a8a8a8a8a8a8a8a8a8a8a8a8a8a8a8a8a8a8a8a8a8a8a8a8a8a8a8a8a8a8a8a8a8a8a8a8a8a8a8a8a8a8a8a8a8a8a8a8a8a8a8a8a8a8a8a8",
"a8a8a8a8a8a8a8a8a8a8a8a8a8a8a8a8a8a8a8a8a8a8a8a8a8a8a8a8a8a8a8a8a8a8a8a8a8a8a8a8a8a8a8a8a8a8a8a8a8a8a8a8a8a8a8a8a8a8a8a8a8a8a8a8",
"a8a8a8a8a8a8a8a8a8a8a8a8a8a8a8a8a8a8a8a8a8a8a8a8a8a8a8a8a8a8a8a8a8a8a8a8a8a8a8a8a8a8a8a8a8a8a8a8a8a8a8a8a8a8a8a8a8a8a8a8a8a8a8a8",
"a8a8a8a8a8a8a8a8a8a8a8a8a8a8a8a8a8a8a8a8a8a8a8a8a8a8a8a8a8a8a8a8a8a8a8a8a8a8a8a8a8a8a8a8a8a8a8a8a8a8a8a8a8a8a8a8a8a8a8a8a8a8a8a8"
};
